# xmcd
#
# Track frame offsets: 
#        182
#        11612
#        24122
#        35712
#        49075
#        62627
#        74962
#        86895
#        100480
#        114527
#        130872
#        148057
#        165835
#        180240
#        192665
#        209020
#        230520
#        249790
#
# Disc length: 3590 seconds
#
# Revision: 1
# Processed by: cddbd v1.5.2PL0 Copyright (c) Steve Scherf et al.
# Submitted via: ExactAudioCopyFreeDBPlugin 1.0
#
DISCID=020e0412
DTITLE=James P. Johnson - 1944
DYEAR=1995
DGENRE=Jazz
TTITLE0=I'm Gonna Sit Right Down And Write Myself A Letter
TTITLE1=Keepin' Out Of Mischief Now
TTITLE2=Squeeze Me
TTITLE3=Honeysuckle Rose
TTITLE4=I've Got A Feeling I'm Falling
TTITLE5=Honeysuckle Rose
TTITLE6=Keepin' Out Of Mischief Now
TTITLE7=My Fate Is In Your Hands
TTITLE8=Hesitation Blues
TTITLE9=The Boogie Dream
TTITLE10=Four O'Clock Groove
TTITLE11=The Dream (Slow Drag)
TTITLE12=Hot Harlem
TTITLE13=Euphonic Sounds
TTITLE14=Everybody Loves My Baby
TTITLE15=Ballin' The Jack
TTITLE16=Who's Sorry Now?
TTITLE17=The Call Of The Blues
EXTD=YEAR: 1996
EXTT0=
EXTT1=
EXTT2=
EXTT3=
EXTT4=
EXTT5=
EXTT6=
EXTT7=
EXTT8=
EXTT9=
EXTT10=
EXTT11=
EXTT12=
EXTT13=
EXTT14=
EXTT15=
EXTT16=
EXTT17=
PLAYORDER=
